<?xml version="1.0" encoding="UTF-8" standalone="no"?>
<svg
   width="300.2"
   height="72.801"
   viewBox="0 0 300.2 72.801"
   version="1.1"
   id="svg8"
   sodipodi:docname="SEMeM.svg"
   inkscape:version="1.1 (c68e22c387, 2021-05-23)"
   xmlns:inkscape="http://www.inkscape.org/namespaces/inkscape"
   xmlns:sodipodi="http://sodipodi.sourceforge.net/DTD/sodipodi-0.dtd"
   xmlns="http://www.w3.org/2000/svg"
   xmlns:svg="http://www.w3.org/2000/svg">
  <defs
     id="defs12" />
  <sodipodi:namedview
     id="namedview10"
     pagecolor="#ffffff"
     bordercolor="#666666"
     borderopacity="1.0"
     inkscape:pageshadow="2"
     inkscape:pageopacity="0.0"
     inkscape:pagecheckerboard="0"
     showgrid="false"
     inkscape:zoom="3.9073949"
     inkscape:cx="98.275196"
     inkscape:cy="36.469311"
     inkscape:window-width="1920"
     inkscape:window-height="1137"
     inkscape:window-x="3832"
     inkscape:window-y="-8"
     inkscape:window-maximized="1"
     inkscape:current-layer="svgGroup" />
  <g
     id="svgGroup"
     stroke-linecap="round"
     fill-rule="evenodd"
     font-size="9pt"
     stroke="#000"
     stroke-width="0.25mm"
     fill="none"
     style="stroke:#000;stroke-width:0.25mm;fill:none">
    <path
       d="M 39 25.2 L 39 22.8 Q 39 18.6 35.75 15.5 A 10.62 10.62 0 0 0 31.255 12.994 Q 29.181 12.4 26.6 12.4 A 19.752 19.752 0 0 0 23.478 12.632 Q 20.626 13.089 18.7 14.45 Q 15.8 16.5 15.8 20 A 7.975 7.975 0 0 0 16.034 21.965 A 6.776 6.776 0 0 0 16.5 23.25 A 5.516 5.516 0 0 0 17.501 24.666 Q 17.99 25.176 18.641 25.639 A 10.122 10.122 0 0 0 18.95 25.85 A 13.479 13.479 0 0 0 20.519 26.727 Q 21.342 27.122 22.32 27.482 A 28.045 28.045 0 0 0 23.55 27.9 A 41.04 41.04 0 0 0 25.852 28.548 Q 26.934 28.821 28.171 29.084 A 90.301 90.301 0 0 0 30.8 29.6 A 56.684 56.684 0 0 1 37.459 31.203 Q 43.703 33.142 47.6 36.3 A 15.126 15.126 0 0 1 52.862 45.012 A 23.555 23.555 0 0 1 53.4 50.2 L 53.4 51.4 A 23.646 23.646 0 0 1 52.846 56.612 A 19.601 19.601 0 0 1 51.65 60.25 Q 49.9 64.2 46.6 67 A 21.621 21.621 0 0 1 41.401 70.236 A 26.855 26.855 0 0 1 38.6 71.3 Q 33.9 72.8 28 72.8 A 41.43 41.43 0 0 1 21.918 72.375 A 30.079 30.079 0 0 1 15.85 70.85 A 26.793 26.793 0 0 1 10.631 68.269 A 22.013 22.013 0 0 1 7.1 65.45 Q 3.6 62 1.8 57.35 Q 0 52.7 0 47.2 L 0 44.2 L 13.2 44.2 L 13.2 46.6 A 17.605 17.605 0 0 0 13.703 50.925 A 12.406 12.406 0 0 0 16.85 56.65 Q 20.5 60.4 28.2 60.4 Q 34.2 60.4 37.1 57.8 Q 40 55.2 40 51.6 Q 40 49.9 39.4 48.35 A 6.346 6.346 0 0 0 38.225 46.445 A 8.338 8.338 0 0 0 37.3 45.55 Q 36.134 44.579 34.304 43.758 A 22.049 22.049 0 0 0 33.2 43.3 A 25.096 25.096 0 0 0 31.053 42.592 Q 29.893 42.263 28.541 41.975 A 54.103 54.103 0 0 0 26.6 41.6 Q 21.3 40.7 16.9 39.25 A 29.642 29.642 0 0 1 12.314 37.318 A 24.145 24.145 0 0 1 9.25 35.4 Q 6 33 4.2 29.4 Q 2.569 26.138 2.416 21.561 A 28.775 28.775 0 0 1 2.4 20.6 L 2.4 20 A 18.468 18.468 0 0 1 3.511 13.56 A 17.469 17.469 0 0 1 4.15 12.05 Q 5.9 8.4 9.05 5.7 Q 12.2 3 16.65 1.5 A 28.283 28.283 0 0 1 22.463 0.229 A 36.171 36.171 0 0 1 26.6 0 A 37.431 37.431 0 0 1 32.278 0.411 A 27.838 27.838 0 0 1 37.6 1.75 A 26.353 26.353 0 0 1 42.263 3.962 A 21.176 21.176 0 0 1 45.65 6.5 Q 48.9 9.5 50.55 13.4 Q 52.2 17.3 52.2 21.6 L 52.2 25.2 L 39 25.2 Z"
       id="0"
       vector-effect="non-scaling-stroke"
       style="fill:#01aef0;fill-opacity:1" />
    <path
       d="M 65.8 71.4 L 65.8 1.4 L 110 1.4 L 110 14 L 79 14 L 79 30 L 108.8 30 L 108.8 42.6 L 79 42.6 L 79 58.8 L 111.2 58.8 L 111.2 71.4 L 65.8 71.4 Z"
       id="1"
       vector-effect="non-scaling-stroke"
       style="fill:#01aef0;fill-opacity:1" />
    <path
       d="M 121 71.4 L 121 1.4 L 144.2 1.4 L 148.2 54 L 148.2 64.2 L 150.6 64.2 L 150.6 54 L 154.6 1.4 L 177.8 1.4 L 177.8 71.4 L 165.8 71.4 L 165.8 24.6 L 167 8.6 L 164.6 8.6 L 159.4 71.4 L 139.6 71.4 L 134.2 8.6 L 131.8 8.6 L 133 24.6 L 133 71.4 L 121 71.4 Z"
       id="2"
       vector-effect="non-scaling-stroke"
       style="fill:#ffffff;fill-opacity:1;stroke:none" />
    <path
       d="M 235.3 50.7 L 198.9 50.7 A 9.842 9.842 0 0 0 199.674 54.164 A 9.381 9.381 0 0 0 199.95 54.75 Q 200.9 56.6 202.55 57.95 Q 204.2 59.3 206.35 60.05 A 13.71 13.71 0 0 0 210.881 60.8 A 15.145 15.145 0 0 0 210.9 60.8 A 21.545 21.545 0 0 0 213.56 60.647 Q 214.873 60.483 215.953 60.144 A 8.501 8.501 0 0 0 218.1 59.15 A 11.471 11.471 0 0 0 220.122 57.476 A 8.857 8.857 0 0 0 221.7 55.2 L 232.5 61.2 Q 231.614 63.071 230.05 65.086 A 29.272 29.272 0 0 1 230 65.15 A 15.859 15.859 0 0 1 227.765 67.461 A 20.451 20.451 0 0 1 225.85 68.9 Q 223.3 70.6 219.65 71.7 Q 216.364 72.691 212.064 72.789 A 42.02 42.02 0 0 1 211.1 72.8 A 30.215 30.215 0 0 1 204.959 72.199 A 25.086 25.086 0 0 1 200.9 71 Q 196.3 69.2 192.95 65.8 A 22.793 22.793 0 0 1 188.496 59.285 A 27.128 27.128 0 0 1 187.75 57.5 A 28.207 28.207 0 0 1 186.205 51.223 A 36.714 36.714 0 0 1 185.9 46.4 L 185.9 45.8 A 28.95 28.95 0 0 1 186.587 39.384 A 24.528 24.528 0 0 1 187.85 35.4 Q 189.8 30.7 193.2 27.4 Q 196.6 24.1 201.15 22.25 A 25.553 25.553 0 0 1 210.576 20.402 A 29.06 29.06 0 0 1 210.9 20.4 A 30.523 30.523 0 0 1 216.068 20.816 Q 219.051 21.328 221.528 22.473 A 18.791 18.791 0 0 1 221.9 22.65 A 25.546 25.546 0 0 1 226.798 25.745 A 21.652 21.652 0 0 1 229.5 28.35 Q 232.5 31.8 233.9 35.95 A 26.904 26.904 0 0 1 235.099 41.009 A 22.706 22.706 0 0 1 235.3 44 L 235.3 50.7 Z M 199.1 39.9 L 222.5 39.9 A 8.666 8.666 0 0 0 219.498 34.694 A 11.553 11.553 0 0 0 218.75 34.1 A 11.608 11.608 0 0 0 214.298 32.151 A 16.542 16.542 0 0 0 210.8 31.8 A 15.384 15.384 0 0 0 207.453 32.145 Q 204.956 32.701 203.118 34.156 A 9.87 9.87 0 0 0 203 34.25 A 13.083 13.083 0 0 0 200.728 36.603 A 10.147 10.147 0 0 0 199.1 39.9 Z"
       id="3"
       vector-effect="non-scaling-stroke"
       style="fill:#ffffff;fill-opacity:1;stroke:none" />
    <path
       d="M 243.4 71.4 L 243.4 1.4 L 266.6 1.4 L 270.6 54 L 270.6 64.2 L 273 64.2 L 273 54 L 277 1.4 L 300.2 1.4 L 300.2 71.4 L 288.2 71.4 L 288.2 24.6 L 289.4 8.6 L 287 8.6 L 281.8 71.4 L 262 71.4 L 256.6 8.6 L 254.2 8.6 L 255.4 24.6 L 255.4 71.4 L 243.4 71.4 Z"
       id="4"
       vector-effect="non-scaling-stroke"
       style="fill:#ffffff;fill-opacity:1;stroke:none" />
  </g>
</svg>
