<svg width="250" height="32" viewBox="0 0 250 32" fill="none" xmlns="http://www.w3.org/2000/svg">
<path d="M0.722471 0.499998H20.6125V6.17H6.66247V13.37H20.0725V19.04H6.66247V26.33H21.1525V32H0.722471V0.499998ZM43.5762 0.499998H54.0162L55.8162 24.17V28.76H56.8962V24.17L58.6962 0.499998H69.1362V32H63.7362V10.94L64.2762 3.74H63.1962L60.8562 32H51.9462L49.5162 3.74H48.4362L48.9762 10.94V32H43.5762V0.499998Z" fill="#01AEF0"/>
<path d="M92.0999 0.499998H112.26V6.17H98.0399V13.37H111.99V19.04H98.0399V32H92.0999V0.499998ZM137.384 0.499998H157.274V6.17H143.324V13.37H156.734V19.04H143.324V26.33H157.814V32H137.384V0.499998ZM197.292 29.03H198.102V0.499998H204.042V32H192.432L188.742 3.47H187.932V32H181.992V0.499998H193.602L197.292 29.03ZM226.871 0.499998H238.301C242.201 0.499998 245.096 1.415 246.986 3.245C248.876 5.045 249.821 7.85 249.821 11.66V20.84C249.821 24.65 248.876 27.47 246.986 29.3C245.096 31.1 242.201 32 238.301 32H226.871V26.285H229.841V6.17H226.871V0.499998ZM238.301 26.33C240.371 26.33 241.811 25.85 242.621 24.89C243.461 23.9 243.881 22.37 243.881 20.3V11.66C243.881 9.86 243.461 8.495 242.621 7.565C241.811 6.635 240.371 6.17 238.301 6.17H235.781V26.33H238.301Z" fill="white"/>
</svg>
