<?xml version="1.0" encoding="UTF-8" standalone="no"?>
<svg
   width="300.2"
   height="72.801"
   viewBox="0 0 300.2 72.801"
   version="1.1"
   id="svg8"
   sodipodi:docname="SEMM.svg"
   inkscape:version="1.1 (c68e22c387, 2021-05-23)"
   xmlns:inkscape="http://www.inkscape.org/namespaces/inkscape"
   xmlns:sodipodi="http://sodipodi.sourceforge.net/DTD/sodipodi-0.dtd"
   xmlns="http://www.w3.org/2000/svg"
   xmlns:svg="http://www.w3.org/2000/svg">
  <defs
     id="defs12" />
  <sodipodi:namedview
     id="namedview10"
     pagecolor="#ffffff"
     bordercolor="#666666"
     borderopacity="1.0"
     inkscape:pageshadow="2"
     inkscape:pageopacity="0.0"
     inkscape:pagecheckerboard="0"
     showgrid="false"
     inkscape:zoom="2.7629454"
     inkscape:cx="29.31654"
     inkscape:cy="-5.2480226"
     inkscape:window-width="1920"
     inkscape:window-height="1137"
     inkscape:window-x="3832"
     inkscape:window-y="-8"
     inkscape:window-maximized="1"
     inkscape:current-layer="svg8" />
  <g
     id="svgGroup"
     stroke-linecap="round"
     fill-rule="evenodd"
     font-size="9pt"
     stroke="#000"
     stroke-width="0.25mm"
     fill="none"
     style="stroke:#000;stroke-width:0.25mm;fill:none">
    <path
       d="M 39 25.2 L 39 22.8 Q 39 18.6 35.75 15.5 A 10.62 10.62 0 0 0 31.255 12.994 Q 29.181 12.4 26.6 12.4 A 19.752 19.752 0 0 0 23.478 12.632 Q 20.626 13.089 18.7 14.45 Q 15.8 16.5 15.8 20 A 7.975 7.975 0 0 0 16.034 21.965 A 6.776 6.776 0 0 0 16.5 23.25 A 5.516 5.516 0 0 0 17.501 24.666 Q 17.99 25.176 18.641 25.639 A 10.122 10.122 0 0 0 18.95 25.85 A 13.479 13.479 0 0 0 20.519 26.727 Q 21.342 27.122 22.32 27.482 A 28.045 28.045 0 0 0 23.55 27.9 A 41.04 41.04 0 0 0 25.852 28.548 Q 26.934 28.821 28.171 29.084 A 90.301 90.301 0 0 0 30.8 29.6 A 56.684 56.684 0 0 1 37.459 31.203 Q 43.703 33.142 47.6 36.3 A 15.126 15.126 0 0 1 52.862 45.012 A 23.555 23.555 0 0 1 53.4 50.2 L 53.4 51.4 A 23.646 23.646 0 0 1 52.846 56.612 A 19.601 19.601 0 0 1 51.65 60.25 Q 49.9 64.2 46.6 67 A 21.621 21.621 0 0 1 41.401 70.236 A 26.855 26.855 0 0 1 38.6 71.3 Q 33.9 72.8 28 72.8 A 41.43 41.43 0 0 1 21.918 72.375 A 30.079 30.079 0 0 1 15.85 70.85 A 26.793 26.793 0 0 1 10.631 68.269 A 22.013 22.013 0 0 1 7.1 65.45 Q 3.6 62 1.8 57.35 Q 0 52.7 0 47.2 L 0 44.2 L 13.2 44.2 L 13.2 46.6 A 17.605 17.605 0 0 0 13.703 50.925 A 12.406 12.406 0 0 0 16.85 56.65 Q 20.5 60.4 28.2 60.4 Q 34.2 60.4 37.1 57.8 Q 40 55.2 40 51.6 Q 40 49.9 39.4 48.35 A 6.346 6.346 0 0 0 38.225 46.445 A 8.338 8.338 0 0 0 37.3 45.55 Q 36.134 44.579 34.304 43.758 A 22.049 22.049 0 0 0 33.2 43.3 A 25.096 25.096 0 0 0 31.053 42.592 Q 29.893 42.263 28.541 41.975 A 54.103 54.103 0 0 0 26.6 41.6 Q 21.3 40.7 16.9 39.25 A 29.642 29.642 0 0 1 12.314 37.318 A 24.145 24.145 0 0 1 9.25 35.4 Q 6 33 4.2 29.4 Q 2.569 26.138 2.416 21.561 A 28.775 28.775 0 0 1 2.4 20.6 L 2.4 20 A 18.468 18.468 0 0 1 3.511 13.56 A 17.469 17.469 0 0 1 4.15 12.05 Q 5.9 8.4 9.05 5.7 Q 12.2 3 16.65 1.5 A 28.283 28.283 0 0 1 22.463 0.229 A 36.171 36.171 0 0 1 26.6 0 A 37.431 37.431 0 0 1 32.278 0.411 A 27.838 27.838 0 0 1 37.6 1.75 A 26.353 26.353 0 0 1 42.263 3.962 A 21.176 21.176 0 0 1 45.65 6.5 Q 48.9 9.5 50.55 13.4 Q 52.2 17.3 52.2 21.6 L 52.2 25.2 L 39 25.2 Z"
       id="0"
       vector-effect="non-scaling-stroke"
       style="fill:#01aef0;fill-opacity:1" />
    <path
       d="M 65.8 71.4 L 65.8 1.4 L 110 1.4 L 110 14 L 79 14 L 79 30 L 108.8 30 L 108.8 42.6 L 79 42.6 L 79 58.8 L 111.2 58.8 L 111.2 71.4 L 65.8 71.4 Z"
       id="1"
       vector-effect="non-scaling-stroke"
       style="fill:#01aef0;fill-opacity:1" />
    <path
       d="m 129,71.4 v -70 h 23.2 l 4,52.6 v 10.2 h 2.4 V 54 l 4,-52.6 h 23.2 v 70 h -12 V 24.6 l 1.2,-16 h -2.4 l -5.2,62.8 H 147.6 L 142.2,8.6 h -2.4 l 1.2,16 v 46.8 z"
       id="2"
       vector-effect="non-scaling-stroke"
       style="fill:#ffffff;fill-opacity:1;stroke:none" />
    <path
       d="m 199.4,71.4 v -70 h 23.2 l 4,52.6 V 64.2 H 229 V 54 l 4,-52.6 h 23.2 v 70 h -12 V 24.6 l 1.2,-16 H 243 l -5.2,62.8 H 218 L 212.6,8.6 h -2.4 l 1.2,16 v 46.8 z"
       id="4"
       vector-effect="non-scaling-stroke"
       style="fill:#ffffff;fill-opacity:1;stroke:none" />
  </g>
</svg>
